<?xml version="1.0" standalone="no"?>
<!DOCTYPE svg PUBLIC "-//W3C//DTD SVG 20010904//EN"
 "http://www.w3.org/TR/2001/REC-SVG-20010904/DTD/svg10.dtd">
<svg version="1.0" xmlns="http://www.w3.org/2000/svg"
 width="700.000000pt" height="700.000000pt" viewBox="0 0 700.000000 700.000000"
 preserveAspectRatio="xMidYMid meet">
<metadata>
Created by potrace 1.11, written by Peter Selinger 2001-2013
</metadata>
<g transform="translate(0.000000,700.000000) scale(0.100000,-0.100000)"
fill="#000000" stroke="none">
<path d="M5000 4790 l0 -280 -85 0 -85 0 0 -190 0 -190 84 0 85 0 4 -557 c3
-475 6 -566 19 -610 51 -166 146 -251 321 -287 91 -19 292 -21 437 -5 l100 12
0 229 c0 214 -1 229 -17 224 -103 -29 -207 -12 -253 40 l-30 35 0 459 0 459
123 3 122 3 0 185 0 185 -122 3 -123 3 0 279 0 280 -290 0 -290 0 0 -280z"/>
<path d="M1595 4526 c-208 -41 -359 -145 -435 -299 -55 -114 -60 -158 -60
-632 0 -471 4 -515 58 -629 104 -218 349 -339 657 -323 305 17 505 144 576
367 17 52 22 101 26 248 l6 182 -282 0 -281 0 0 -160 c0 -171 -10 -218 -48
-239 -65 -35 -126 10 -137 101 -3 29 -5 251 -3 493 3 480 4 486 61 513 22 11
35 11 63 2 54 -18 64 -52 64 -225 l0 -145 281 0 282 0 -6 163 c-6 178 -18 233
-67 326 -61 114 -194 208 -350 246 -90 22 -316 28 -405 11z"/>
<path d="M3834 4520 c-81 -21 -157 -57 -226 -106 l-48 -34 0 65 0 65 -285 0
-285 0 0 -1220 0 -1220 285 0 285 0 0 370 0 369 81 -54 c167 -112 344 -144
474 -86 105 47 190 165 220 309 23 105 21 1144 -1 1245 -57 252 -245 364 -500
297z m-81 -341 l27 -29 0 -541 0 -541 -34 -34 c-28 -28 -42 -34 -75 -34 -23 0
-57 7 -76 14 l-35 15 0 569 0 570 24 15 c33 22 86 36 116 30 14 -3 37 -18 53
-34z"/>
</g>
</svg>
