<?xml version="1.0" encoding="UTF-8"?>
<svg width="21px" height="14px" viewBox="0 0 21 14" version="1.1" xmlns="http://www.w3.org/2000/svg" xmlns:xlink="http://www.w3.org/1999/xlink">
    <!-- Generator: Sketch 51.2 (57519) - http://www.bohemiancoding.com/sketch -->
    <title>behance</title>
    <desc>Created with Sketch.</desc>
    <defs></defs>
    <g id="MrBenBurns" stroke="none" stroke-width="1" fill="none" fill-rule="evenodd">
        <g id="Desktop-HD-Copy-2" transform="translate(-1737.000000, -9033.000000)" fill="#FFD24A" fill-rule="nonzero">
            <g id="behance" transform="translate(1737.000000, 9033.000000)">
                <path d="M6.07075,0 C6.685,0 7.24325,0.0525 7.75075,0.1645 C8.255625,0.27825 8.687,0.45325 9.050125,0.69825 C9.408875,0.94325 9.6915,1.267 9.890125,1.67825 C10.087,2.0895 10.187625,2.597 10.187625,3.192 C10.187625,3.8395 10.038875,4.382 9.744,4.8195 C9.44825,5.257 9.011625,5.607 8.42975,5.887 C9.2225,6.1145 9.80875,6.517 10.199,7.08575 C10.591,7.66325 10.780875,8.3545 10.780875,9.15075 C10.780875,9.807 10.667125,10.367 10.422125,10.8395 C10.177125,11.32075 9.835875,11.7145 9.407125,12.02075 C8.987125,12.32525 8.488375,12.54575 7.945875,12.691875 C7.412125,12.83625 6.850375,12.914125 6.274625,12.914125 L0,12.914125 L0,0.006125 L6.07075,0.006125 L6.07075,0 Z M14.8225,10.64175 C15.2075,11.01625 15.761375,11.204375 16.47975,11.204375 C16.996,11.204375 17.44225,11.074875 17.8185,10.81325 C18.1895,10.5595 18.4135,10.2795 18.501,9.99075 L20.7655,9.99075 C20.412875,11.11075 19.8485,11.91575 19.103,12.397 C18.35925,12.887 17.4545,13.12325 16.408,13.12325 C15.675625,13.12325 15.022,13.0095 14.42,12.77325 C13.831125,12.537 13.335,12.2045 12.915,11.77575 C12.509,11.347 12.194875,10.83075 11.972625,10.227 C11.75125,9.62325 11.64625,8.95825 11.64625,8.24075 C11.64625,7.538125 11.764375,6.89325 11.998875,6.2895 C12.235125,5.677 12.562375,5.1695 12.978875,4.72325 C13.412,4.277 13.909,3.940125 14.497875,3.6785 C15.08675,3.416875 15.722875,3.299625 16.440375,3.299625 C17.236625,3.299625 17.919125,3.443125 18.522875,3.75725 C19.109125,4.05475 19.590375,4.47475 19.975375,4.98225 C20.360375,5.495 20.631625,6.08475 20.797875,6.74975 C20.964125,7.406 21.016625,8.09725 20.981625,8.83225 L14.252875,8.83225 C14.252875,9.56725 14.497875,10.26025 14.874125,10.639125 L14.804125,10.665375 L14.8225,10.64175 Z M5.8625,10.6855 C6.139875,10.6855 6.405,10.65925 6.65525,10.604125 C6.909,10.551625 7.13475,10.45975 7.322875,10.341625 C7.506625,10.2235 7.664125,10.054625 7.777875,9.8315 C7.891625,9.6215 7.944125,9.33275 7.944125,8.9915 C7.944125,8.33525 7.751625,7.86275 7.384125,7.574 C7.007875,7.294 6.517875,7.154 5.905375,7.154 L2.835,7.154 L2.835,10.69775 L5.8625,10.69775 L5.8625,10.6715 L5.8625,10.6855 Z M17.768625,5.74175 C17.460625,5.404875 16.946125,5.22375 16.31875,5.22375 C15.90925,5.22375 15.570625,5.2885 15.2985,5.432 C15.03425,5.56325 14.81725,5.73825 14.651,5.94825 C14.48475,6.15825 14.373625,6.36825 14.308,6.6045 C14.242375,6.832 14.203,7.042 14.189875,7.22575 L18.356625,7.22575 C18.295375,6.5695 18.067875,6.08825 17.761625,5.747 L17.761625,5.75575 L17.768625,5.74175 Z M5.705,5.203625 C6.20725,5.203625 6.62375,5.086375 6.951875,4.843125 C7.279125,4.606875 7.436625,4.213125 7.436625,3.672375 C7.436625,3.371375 7.375375,3.1255 7.279125,2.932125 C7.165375,2.739625 7.016625,2.590875 6.841625,2.484125 C6.657875,2.375625 6.447875,2.300375 6.211625,2.25925 C5.975375,2.212875 5.721625,2.1945 5.476625,2.1945 L2.82625,2.1945 L2.82625,5.2045 L5.705,5.2045 L5.705,5.203625 Z M13.66575,0.865375 L18.88775,0.865375 L18.88775,2.137625 L13.66575,2.137625 L13.66575,0.854875 L13.66575,0.863625 L13.66575,0.865375 Z" id="Shape"></path>
            </g>
        </g>
    </g>
</svg>