<?xml version="1.0" encoding="UTF-8"?>
<svg width="18px" height="18px" viewBox="0 0 18 18" version="1.1" xmlns="http://www.w3.org/2000/svg" xmlns:xlink="http://www.w3.org/1999/xlink">
    <!-- Generator: Sketch 51.2 (57519) - http://www.bohemiancoding.com/sketch -->
    <title>dribbble</title>
    <desc>Created with Sketch.</desc>
    <defs></defs>
    <g id="MrBenBurns" stroke="none" stroke-width="1" fill="none" fill-rule="evenodd">
        <g id="Desktop-HD-Copy-2" transform="translate(-1769.000000, -9031.000000)" fill="#FFD24A" fill-rule="nonzero">
            <g id="dribbble" transform="translate(1769.000000, 9031.000000)">
                <path d="M9,18 C4.03875,18 0,13.96125 0,9 C0,4.03875 4.03875,0 9,0 C13.96125,0 18,4.03875 18,9 C18,13.96125 13.96125,18 9,18 Z M16.59,10.2315 C16.3275,10.149 14.2125,9.51675 11.802,9.903 C12.807,12.666 13.21725,14.916 13.296,15.384 C15.021,14.21775 16.248,12.369 16.59225,10.2315 L16.59,10.2315 Z M12.00375,16.0875 C11.889,15.4125 11.44125,13.0635 10.36125,10.26 L10.31175,10.275 C5.96925,11.78625 4.41675,14.79375 4.28175,15.075 C5.57925,16.0935 7.22175,16.6995 8.99925,16.6995 C10.06425,16.6995 11.07675,16.482 11.99925,16.089 L12.00375,16.0875 Z M3.28875,14.1525 C3.46275,13.8525 5.5725,10.36125 9.53775,9.07875 C9.639,9.045 9.74025,9.01575 9.8415,8.98875 C9.6465,8.55 9.4365,8.1135 9.2175,7.68375 C5.3775,8.83125 1.6545,8.7825 1.317,8.775 L1.314,9.009 C1.314,10.98375 2.0625,12.78675 3.2895,14.15025 L3.28875,14.1525 Z M1.47375,7.43625 C1.81875,7.44225 4.986,7.45575 8.5815,6.50025 C7.308,4.23675 5.934,2.33175 5.7315,2.05425 C3.5805,3.06675 1.974,5.04675 1.4745,7.43175 L1.47375,7.43625 Z M7.2,1.539 C7.4115,1.824 8.80875,3.7245 10.0665,6.039 C12.80025,5.01525 13.959,3.459 14.09625,3.2625 C12.73875,2.055 10.95375,1.323 9,1.323 C8.38125,1.323 7.7775,1.398 7.2,1.53675 L7.2,1.539 Z M14.95125,4.15125 C14.78775,4.36875 13.5,6.021 10.65825,7.18125 C10.83825,7.54875 11.01075,7.92 11.16825,8.29575 C11.22825,8.43075 11.28075,8.56575 11.33325,8.69325 C13.89075,8.37075 16.43325,8.88825 16.68825,8.94075 C16.67325,7.12575 16.02825,5.46075 14.95575,4.15575 L14.95125,4.15125 Z" id="Shape"></path>
            </g>
        </g>
    </g>
</svg>