<?xml version="1.0" encoding="UTF-8"?>
<svg width="19px" height="16px" viewBox="0 0 19 16" version="1.1" xmlns="http://www.w3.org/2000/svg" xmlns:xlink="http://www.w3.org/1999/xlink">
    <!-- Generator: Sketch 51.2 (57519) - http://www.bohemiancoding.com/sketch -->
    <title>medium</title>
    <desc>Created with Sketch.</desc>
    <defs></defs>
    <g id="MrBenBurns" stroke="none" stroke-width="1" fill="none" fill-rule="evenodd">
        <g id="Desktop-HD-Copy-2" transform="translate(-1802.000000, -9032.000000)" fill="#FFD24A" fill-rule="nonzero">
            <g id="medium" transform="translate(1802.000000, 9032.000000)">
                <path d="M2.25308333,3.07720833 C2.27683333,2.84366667 2.187375,2.61329167 2.01320833,2.45654167 L0.239875,0.319041667 L0.239875,0 L5.7475,0 L10.0050833,9.33770833 L13.7480833,3.51570624e-16 L19,0 L19,0.319041667 L17.482375,1.77333333 C17.35175,1.87308333 17.2868333,2.03695833 17.31375,2.19925 L17.31375,12.88675 C17.2868333,13.04825 17.35175,13.2113333 17.482375,13.311875 L18.9627917,14.7661667 L18.9627917,15.0852083 L11.5132083,15.0852083 L11.5132083,14.7661667 L13.0466667,13.27625 C13.1970833,13.1258333 13.1970833,13.0815 13.1970833,12.8503333 L13.1970833,4.21245833 L8.93,15.0487917 L8.35445833,15.0487917 L3.38675,4.21245833 L3.38675,11.4752083 C3.34558333,11.7807917 3.44691667,12.0879583 3.66145833,12.3088333 L5.65645833,14.7313333 L5.65645833,15.0495833 L0,15.0495833 L0,14.7305417 L1.995,12.3080417 C2.20875,12.0879583 2.30375,11.777625 2.25308333,11.4752083 L2.25308333,3.07720833 Z" id="Shape"></path>
            </g>
        </g>
    </g>
</svg>