<?xml version="1.0" encoding="UTF-8"?>
<svg width="22px" height="16px" viewBox="0 0 22 16" version="1.1" xmlns="http://www.w3.org/2000/svg" xmlns:xlink="http://www.w3.org/1999/xlink">
    <!-- Generator: Sketch 51.2 (57519) - http://www.bohemiancoding.com/sketch -->
    <title>youtube</title>
    <desc>Created with Sketch.</desc>
    <defs></defs>
    <g id="MrBenBurns" stroke="none" stroke-width="1" fill="none" fill-rule="evenodd">
        <g id="Desktop-HD-Copy-2" transform="translate(-1639.000000, -9032.000000)" fill="#FFD24A" fill-rule="nonzero">
            <g id="youtube" transform="translate(1639.000000, 9032.000000)">
                <path d="M20.8844444,2.84888889 C20.6330586,1.94813935 19.929194,1.24427469 19.0284444,0.992888889 C17.3662222,0.547555556 10.6764444,0.547555556 10.6764444,0.547555556 C10.6764444,0.547555556 4.00355556,0.538666667 2.32444444,0.992888889 C1.4236949,1.24427469 0.719830242,1.94813935 0.468444444,2.84888889 C0.153351639,4.55067605 -0.00199062372,6.27818914 0.00444444444,8.00888889 C-0.000774105629,9.73305798 0.154563065,11.4539677 0.468444444,13.1493333 C0.719830242,14.0500829 1.4236949,14.7539475 2.32444444,15.0053333 C3.98488889,15.4515556 10.6764444,15.4515556 10.6764444,15.4515556 C10.6764444,15.4515556 17.3484444,15.4515556 19.0284444,15.0053333 C19.929194,14.7539475 20.6330586,14.0500829 20.8844444,13.1493333 C21.1917682,11.4533536 21.3405582,9.73244887 21.3288889,8.00888889 C21.3417746,6.27880052 21.1929797,4.55129242 20.8844444,2.84888889 Z M8.54133333,11.2008889 L8.54133333,4.80711111 L14.1093333,8.00888889 L8.54133333,11.2008889 Z" id="Shape"></path>
            </g>
        </g>
    </g>
</svg>