<svg xmlns="http://www.w3.org/2000/svg" viewBox="0 0 1120.06 1120.06"><defs><style>.cls-1,.cls-2{fill-rule:evenodd;}.cls-2{fill:#fff;}</style></defs><g id="Ebene_2" data-name="Ebene 2"><g id="Ebene_1-2" data-name="Ebene 1"><polygon class="cls-1" points="1120.06 0 0 1120.06 1120.06 1120.06 1120.06 0"/><path class="cls-2" d="M1120.06,976.19a111,111,0,0,1-10.2-9.28c-8.35-8.35-34.65-35.27-67.75-68.37-23.2-23.2-45.78-30.31-62.49-29.08,48.88-61.25,85.69-140.14-9.28-235.11-27.22-27.23-58.78-39.6-91.88-41.15-3.71-8.66-20.42-42.69-68.06-63.11,0,0-27.53,13.93-42.69,93.43A329.93,329.93,0,0,0,644,747.27C564.77,762.73,550.54,790,550.54,790,571,837.6,605,854.3,613.65,858c1.54,33.1,14.23,65,41.14,91.88,94.67,94.66,173.55,58.47,234.81,9.59-.93,13.3,3.4,30.62,17.32,48.88-7.73,20.72-32.79,66.82-92.5,51.66-12.06-2.78-44.24-7.12-63.42,12.68-20.42,21,3.4,20.11,16.71,16.09,16.39-4.64,50.42,5.26,60.32,9.59,18.87,9,61.57,19.49,112.3-54.14,20.73,20.73,40.53,39.91,46.41,45.79,1,1,19.8,18.39,41.81,30h91.51Z"/></g></g></svg>