<svg xmlns="http://www.w3.org/2000/svg" viewBox="0 0 995.77 995.77"><defs><style>.cls-1,.cls-2{fill-rule:evenodd;}.cls-2{fill:#fff;}</style></defs><g id="Ebene_2" data-name="Ebene 2"><g id="Ebene_1-2" data-name="Ebene 1"><polygon class="cls-1" points="995.77 0 0 995.77 995.77 995.77 995.77 0"/><path class="cls-2" d="M995.77,851.9a111,111,0,0,1-10.2-9.28c-8.35-8.35-34.65-35.27-67.75-68.37-23.2-23.2-45.79-30.32-62.49-29.08C904.21,683.92,941,605,846.05,510.06c-27.23-27.23-58.78-39.6-91.88-41.15-3.71-8.66-20.42-42.69-68.06-63.11,0,0-27.53,13.92-42.69,93.43A330,330,0,0,0,519.67,623c-79.19,15.47-93.43,42.7-93.43,42.7,20.42,47.64,54.45,64.34,63.11,68.06,1.55,33.1,14.24,65,41.15,91.88,94.66,94.66,173.55,58.47,234.8,9.59-.92,13.3,3.41,30.62,17.33,48.88-7.74,20.72-32.79,66.82-92.5,51.66-12.07-2.79-44.24-7.12-63.42,12.68-20.42,21,3.4,20.11,16.71,16.09,16.39-4.64,50.42,5.26,60.32,9.59,18.87,9,61.56,19.49,112.3-54.14,20.73,20.73,40.53,39.91,46.4,45.79,1,1,19.81,18.39,41.82,30h91.51Z"/></g></g></svg>