<?xml version="1.0" encoding="utf-8"?>
<!-- Generator: Adobe Illustrator 24.0.2, SVG Export Plug-In . SVG Version: 6.00 Build 0)  -->
<svg version="1.1" id="Capa_1" xmlns="http://www.w3.org/2000/svg" xmlns:xlink="http://www.w3.org/1999/xlink" x="0px" y="0px"
	 viewBox="0 0 52.8 52.8" style="enable-background:new 0 0 52.8 52.8;" xml:space="preserve">
<style type="text/css">
	.st0{stroke:#000000;stroke-width:1.3613;stroke-miterlimit:10;}
</style>
<g>
	<g>
		<path class="st0" d="M26.4,1.4c-13.8,0-25,11.2-25,25s11.2,25,25,25s25-11.2,25-25S40.2,1.4,26.4,1.4z M26.4,49.3
			c-12.6,0-22.9-10.3-22.9-22.9S13.8,3.5,26.4,3.5s22.9,10.3,22.9,22.9S39.1,49.3,26.4,49.3z"/>
	</g>
</g>
<g>
	<g>
		<path class="st0" d="M37.9,34.8H15c-0.6,0-1,0.5-1,1c0,0.6,0.5,1,1,1h22.9c0.6,0,1-0.5,1-1C38.9,35.2,38.5,34.8,37.9,34.8z"/>
	</g>
</g>
<g>
	<g>
		<path class="st0" d="M21.9,22.6l-8.3-8.3c-0.4-0.4-1.1-0.4-1.5,0c-0.4,0.4-0.4,1.1,0,1.5l8.3,8.3c0.2,0.2,0.5,0.3,0.7,0.3
			c0.3,0,0.5-0.1,0.7-0.3C22.4,23.6,22.4,23,21.9,22.6z"/>
	</g>
</g>
<g>
	<g>
		<path class="st0" d="M21.9,14.2c-0.4-0.4-1.1-0.4-1.5,0l-8.3,8.3c-0.4,0.4-0.4,1.1,0,1.5c0.2,0.2,0.5,0.3,0.7,0.3
			c0.3,0,0.5-0.1,0.7-0.3l8.3-8.3C22.4,15.3,22.4,14.6,21.9,14.2z"/>
	</g>
</g>
<g>
	<g>
		<path class="st0" d="M40.7,22.6l-8.3-8.3c-0.4-0.4-1.1-0.4-1.5,0c-0.4,0.4-0.4,1.1,0,1.5l8.3,8.3c0.2,0.2,0.5,0.3,0.7,0.3
			c0.3,0,0.5-0.1,0.7-0.3C41.1,23.6,41.1,23,40.7,22.6z"/>
	</g>
</g>
<g>
	<g>
		<path class="st0" d="M40.7,14.2c-0.4-0.4-1.1-0.4-1.5,0l-8.3,8.3c-0.4,0.4-0.4,1.1,0,1.5c0.2,0.2,0.5,0.3,0.7,0.3
			c0.3,0,0.5-0.1,0.7-0.3l8.3-8.3C41.1,15.3,41.1,14.6,40.7,14.2z"/>
	</g>
</g>
</svg>
